<?xml version="1.0" standalone="no"?>
<!DOCTYPE svg PUBLIC "-//W3C//DTD SVG 20010904//EN"
 "http://www.w3.org/TR/2001/REC-SVG-20010904/DTD/svg10.dtd">
<svg version="1.0" xmlns="http://www.w3.org/2000/svg"
 width="300.000000pt" height="300.000000pt" viewBox="0 0 300.000000 300.000000"
 preserveAspectRatio="xMidYMid meet">
<metadata>
Created by potrace 1.14, written by Peter Selinger 2001-2017
</metadata>
<g transform="translate(0.000000,300.000000) scale(0.100000,-0.100000)"
fill="#000000" stroke="none">
<path d="M1382 2429 c-284 -37 -545 -208 -685 -450 -15 -25 -27 -51 -27 -56 0
-11 259 -219 284 -229 8 -3 18 8 26 28 27 66 93 159 147 207 118 105 237 146
403 138 122 -5 186 -26 275 -88 l58 -40 66 64 c36 35 95 92 131 126 l65 62
-45 40 c-165 150 -448 231 -698 198z"/>
<path d="M1500 1495 l0 -175 259 0 259 0 -10 -37 c-21 -78 -63 -149 -123 -209
-101 -102 -216 -147 -375 -148 -219 -1 -417 120 -510 311 -18 38 -34 70 -36
71 -5 7 -294 -222 -294 -233 0 -26 103 -169 168 -234 232 -232 566 -325 898
-251 258 58 490 254 589 499 61 149 88 356 65 500 l-12 81 -439 0 -439 0 0
-175z"/>
</g>
</svg>
